<svg version="1" xmlns="http://www.w3.org/2000/svg" width="512" height="512" viewBox="0 0 5120 5120"><path d="M750 3897c-26-7-62-23-82-35-43-26-124-111-140-147-6-14-23-28-37-32-90-21-236-134-316-242-42-58-98-167-125-246-65-186-66-568-2-755 79-229 254-429 424-486 38-12 52-23 67-52 22-42 91-111 139-138 18-10 34-28 36-39 40-235 86-394 162-555 178-377 494-699 864-885 268-134 522-195 820-195 525 0 1006 216 1371 617 237 259 407 602 459 923 6 41 13 84 15 95 3 12 22 31 43 43 45 25 113 95 136 140 11 22 29 35 65 47 169 56 343 255 423 485 64 183 63 568-1 752-11 32-41 99-67 150-80 155-252 312-374 341-15 4-33 21-44 42-27 50-118 132-173 157-71 32-163 30-235-5-62-31-134-102-170-168l-23-44V1965l23-43c29-54 84-115 128-143 40-24 41-29 13-162-69-345-254-669-506-890-492-431-1215-526-1808-238-449 219-763 629-864 1128-28 133-27 138 13 162 44 28 99 89 128 143l23 43v1700l-23 44c-77 143-232 224-362 188zm131-246l24-19v-816c0-916 6-844-77-853-33-4-49-1-68 15l-25 20v1634l24 19c14 11 39 19 61 19s47-8 61-19zm3480 0l24-19V1998l-25-20c-19-16-35-19-68-15-83 9-77-63-77 853v816l24 19c30 25 92 25 122 0zM500 2814v-625l-31 18c-92 53-181 198-221 358-32 130-32 372 0 500 28 109 81 223 130 277 32 35 108 98 119 98 1 0 3-282 3-626zm4231 538c235-256 219-882-28-1104-23-20-51-41-62-48l-21-11v1252l31-18c17-10 53-42 80-71z" fill="#00a5d7"/></svg>