<svg version="1" xmlns="http://www.w3.org/2000/svg" width="512" height="512" viewBox="0 0 5120 5120"><g fill="#00a5d7"><path d="M2480 4981c-117-122-423-528-617-818-511-759-825-1470-920-2083-27-177-25-509 6-650 55-256 156-477 311-680 72-94 241-259 340-332C2132 24 2850-5 3410 343c154 96 351 276 462 422 143 190 246 418 299 665 20 90 23 136 23 315 1 224-10 320-60 545-161 719-686 1688-1392 2568-63 78-122 147-132 152-10 6-35 10-56 10-30 0-44-7-74-39zm285-496c667-888 1096-1758 1202-2439 24-155 24-448-1-571-119-599-543-1023-1141-1141-125-25-405-25-530 0-414 82-749 311-957 654-149 246-218 530-205 837 34 752 501 1744 1311 2782l111 143 34-38c18-20 97-122 176-227z"/><path d="M2440 2554c-74-14-188-61-252-103-388-254-461-741-163-1079 93-104 234-193 365-228 79-21 243-24 320-5 80 19 211 83 279 135 118 91 207 216 257 361 25 71 28 95 28 205 0 144-13 201-76 322-85 165-245 304-416 363-63 22-99 27-197 30-66 2-131 1-145-1zm301-233c184-70 290-205 321-407 22-141-27-313-118-414-162-180-461-217-670-82-107 69-182 181-210 311-18 84-17 139 1 226 41 192 174 333 361 380 85 21 242 14 315-14z"/></g></svg>