<svg version="1" xmlns="http://www.w3.org/2000/svg" width="512" height="512" viewBox="0 0 5120 5120"><g fill="#00a5d7"><path d="M2210 5105c-419-42-884-243-1255-542-121-98-337-317-427-433-239-310-406-664-481-1025-70-334-62-857 17-1166 123-479 349-866 712-1220 340-330 708-538 1163-655 238-61 625-81 957-49 426 41 884 235 1259 533 93 74 290 267 375 367 324 382 539 880 579 1345 15 174 14 457-4 635-41 421-224 860-513 1235-90 116-306 335-427 433-378 305-834 500-1270 542-178 17-508 17-685 0zm690-230c512-78 967-305 1319-656 299-300 517-691 614-1104 48-205 61-323 61-555 0-391-71-705-238-1045-229-465-581-818-1047-1049-969-481-2154-237-2847 586-292 347-490 828-532 1293-63 700 192 1403 685 1889 355 349 853 588 1347 645 51 6 107 13 123 15 65 9 416-4 515-19z"/><path d="M1690 3482c-45-22-74-79-65-124 6-26 76-102 322-349l314-316-12-47c-16-65-7-171 20-223 29-59 76-109 127-139l44-26v-828c0-523 4-838 10-855 17-44 58-75 102-75 53 0 92 22 112 64 14 31 16 117 16 864v830l44 26c51 30 97 79 128 139 19 35 23 58 23 137 0 80-4 102-23 138-75 141-227 211-378 173l-48-12-310 310c-171 171-324 315-339 321-38 14-46 13-87-8z"/></g></svg>