<svg version="1" xmlns="http://www.w3.org/2000/svg" width="500" height="667" viewBox="0 0 5000 6670"><g fill="#fff"><path d="M250 6652c-72-19-154-72-195-126-59-78-55 162-55-3190C0 583 2 259 16 218 47 127 149 40 257 15 302 4 421 1 787 0h473l4 23c3 12 8 51 11 86 8 81 50 208 99 294 180 323 576 547 1018 576 392 26 760-90 1034-326 163-141 284-368 302-569l7-79 460-3c525-4 564 0 654 58 32 21 71 54 89 76 67 81 62-189 60 3214l-3 3086-26 49c-33 65-125 140-199 163-49 15-111 17-545 17h-490l-7-79c-40-437-460-805-1013-887-103-15-327-15-430 0-404 60-747 274-911 568-49 86-91 213-99 294-3 35-8 74-11 87l-4 22-473-1c-412 0-480-2-537-17zm788-316c52-167 153-327 297-471 124-124 244-210 400-285 141-69 267-112 419-143 96-19 142-22 346-22s250 3 346 22c448 91 819 341 1022 688 42 73 94 196 107 253l7 33 326-3c344-3 369-6 415-52 16-16 17-200 17-3021s-1-3005-17-3021c-46-46-71-49-414-52l-326-3-13 48c-103 374-459 717-897 863-222 74-296 84-573 84s-351-10-573-84c-438-146-794-489-897-863l-13-48-326 3c-343 3-368 6-414 52-16 16-17 200-17 3021v3004l22 20c20 19 52 33 103 44 11 3 157 5 325 6l305 1 23-74z"/><path d="M1244 4167c-2-7-3-105-2-217l3-205h2510v430l-1253 3c-1011 2-1254 0-1258-11z"/></g></svg>