<svg version="1" xmlns="http://www.w3.org/2000/svg" width="512" height="512" viewBox="0 0 5120 5120"><path d="M0 4723c1-272 76-450 267-634 153-147 299-229 673-379 306-122 422-188 472-268 21-34 23-50 26-209l4-172-46-64c-57-80-139-251-162-337-14-53-27-75-69-120-65-68-88-107-113-190-41-137-37-247 14-339l24-43-20-97c-43-216-56-492-31-656 63-400 306-661 693-746 323-71 650-23 803 118 23 21 59 41 85 48s73 24 106 39l60 27 84-45c47-24 114-54 150-66 151-49 389-64 532-35 85 18 200 69 249 112 18 17 59 38 89 46 64 19 161 74 208 120 178 171 226 513 131 929l-20 86 22 44c30 59 36 163 14 247-22 86-48 134-101 191-32 34-49 65-65 116-30 97-71 184-125 266l-47 70 6 134c7 161 15 178 107 239 69 45 129 73 335 155 345 137 534 265 650 440 84 126 115 240 115 423v97H3984l38 78c21 43 47 113 57 155 20 78 45 303 35 318-3 5-930 9-2060 9H0v-107zm3860-137c0-2-11-36-24-76-30-87-78-169-129-218-21-20-53-51-70-68-83-82-234-160-567-294-234-94-298-125-391-186-82-54-187-164-219-230-24-48-25-56-28-314l-3-265 45-32c77-54 157-230 178-388 14-113 20-125 62-125 64 0 84-14 100-72 19-69 30-160 21-187-3-11-27-33-52-47-51-31-51-15 0-189 96-329 104-644 19-825-30-65-90-133-146-165-41-23-118-48-189-60-30-5-41-13-57-45-11-21-34-48-51-60-142-102-545-88-778 27-100 50-204 152-249 245-61 125-76 202-76 398 0 191 11 277 66 509l32 133-21 17c-12 9-34 25-49 35-26 19-27 21-21 100 6 84 21 142 42 164 7 8 37 17 66 20l54 7 12 82c14 104 36 179 78 271 44 93 68 128 115 157l38 24 7 123c4 68 3 189-2 269-8 131-12 151-38 203-52 102-178 212-334 291-30 15-163 71-296 125-341 138-457 200-572 304-85 77-165 211-188 314l-7 32h1811c996 0 1811-2 1811-4zm1014-573c-4-16-18-50-32-78-85-171-206-256-577-405-252-101-363-161-450-241-39-37-84-91-100-120l-30-54-3-231-4-231 44-30c68-46 129-183 152-345 13-87 21-98 78-98 46 0 54-13 69-111 12-81 15-76-63-130l-22-16 32-104c146-470 88-804-153-878-37-12-77-21-90-21-16 0-34-15-58-49-28-39-47-54-94-72-50-19-76-22-198-22-155-1-273 21-363 67l-48 25 41 84c59 120 77 210 82 407 5 181-8 310-52 502l-24 108 27 57c70 152 23 383-105 511-42 43-56 64-68 110-30 116-93 253-162 351l-45 63 4 173c4 168 5 174 31 212 57 82 163 142 477 268 256 103 440 195 535 269l70 54 553 1 552 1-6-27z" fill="#00a5d7"/></svg>