<?xml version="1.0" encoding="utf-8"?>
<!-- Generator: Adobe Illustrator 18.1.0, SVG Export Plug-In . SVG Version: 6.00 Build 0)  -->
<!DOCTYPE svg PUBLIC "-//W3C//DTD SVG 1.1//EN" "http://www.w3.org/Graphics/SVG/1.1/DTD/svg11.dtd">
<svg version="1.1" id="Layer_1" xmlns="http://www.w3.org/2000/svg" xmlns:xlink="http://www.w3.org/1999/xlink" x="0px" y="0px"
	 viewBox="-302 391.5 402.3 113" enable-background="new -302 391.5 402.3 113" xml:space="preserve">
<path fill="#FFFFFF" d="M-100.3,450.5l-4.7,15.6h-10.4l8.7-22.5l-8.3-21.1h10.1l4.6,15.1l4.6-15.1h10.1l-8.3,21.1l8.7,22.5h-10.4
	L-100.3,450.5z M-128.6,422.6h9.8v43.6h-9.8V422.6z M-150.1,445.6c1.4,0.6,2.7,0.7,3.7,0.4c1-0.3,1.9-0.8,2.6-1.6
	c0.7-0.8,1.2-1.8,1.5-3s0.5-2.5,0.5-3.8c0-0.9-0.1-1.8-0.3-2.8c-0.2-0.9-0.5-1.7-0.9-2.5c-0.4-0.7-1-1.3-1.6-1.8
	c-0.7-0.5-1.5-0.7-2.5-0.7c-1,0-2.1,0.1-3.1,0.3V445.6z M-132.4,466.1h-10.2l-6.4-13.4h-1v13.4h-9.4v-43.6c0.6,0,1.4-0.1,2.4-0.2
	c1-0.1,2-0.2,3-0.3c1-0.1,2.1-0.2,3.1-0.3c1-0.1,1.9-0.1,2.5-0.1c1.4,0,2.9,0.1,4.5,0.2c1.6,0.2,3.1,0.6,4.5,1.4
	c2.4,1.2,4.2,3.1,5.4,5.8c1.2,2.6,1.8,6.2,1.6,10.7c-0.3,3.7-1.1,6.5-2.4,8.4c-1.3,1.9-2.9,3.2-4.9,4L-132.4,466.1z M-188,430.8
	l0.7-8.2h25.5l0.8,8.2h-8.3v35.4h-9.8v-35.4H-188z"/>
<path fill="#FFFFFF" d="M43,422.6h10.6l5.9,18.9l5.8-18.9h10.7L64.2,452v14.1h-9.6V452L43,422.6z M27.7,466.1v-43.6h9.5v35h10.6v8.5
	H27.7z M13,422.6h9.8v43.6H13V422.6z M-8.1,464l-6.7-18.8v20.9h-9.5v-43.6h10l6.2,19.6l6.1-19.6H8v43.6h-9.5v-20.9L-8.1,464z
	 M-42.1,430.8h-1.5l-2.4,19.1h6.4L-42.1,430.8z M-38.5,457.9h-8.7l-0.9,8.3h-10.2l7.7-43.6h15.2l7.7,43.6h-9.9L-38.5,457.9z
	 M-79.2,422.6h20.3v8.2h-10.8v9.5h10.3v7.8h-10.3v18h-9.5V422.6z"/>
<path fill="#FFFFFF" d="M-233.7,404.3c-22.2,0-40.3,18-40.3,40.3c0,22.2,18,40.3,40.3,40.3c22.2,0,40.3-18,40.3-40.3
	C-193.4,422.4-211.4,404.3-233.7,404.3z M-261.9,420.7c0.5-0.6,1-1.2,1.6-1.8c-0.2,0.9-0.5,2.3-0.8,2.9c-0.1,0.1-0.7-0.1-0.8-0.1
	c0-0.2,0.1-0.4,0.1-0.6c0,0-0.1-0.1-0.2-0.2C-261.9,420.9-261.9,420.8-261.9,420.7z M-224.3,478.4c-0.1,0.1-0.1,0.2-0.2,0.2
	c-0.2,0.2-0.2,0.4-0.6,0.6c-0.3,0.1-0.8,0.1-1.3,0.2c-0.2,0.1-0.5,0.3-0.7,0.4c-0.1,0,0.5,0.1,0.4,0.1c0,0-0.5,0-0.8,0.1
	c-0.4,0.2-0.7,0.6-0.3,0.7c0.7,0.1,2.8-0.4,2.7-0.3c0,0-1.5,0.4-2.1,0.5c0,0-0.1,0-0.1,0c-2.1,0.4-4.2,0.6-6.4,0.6
	c-20.4,0-37-16.6-37-37c0-7.4,2.1-14.2,5.9-20c0.2,0.1,0.4,0.3,0.5,0.4c0.5,0.4,0.8,1,1.1,0.8c1.5-0.9,2.3-1.2,3.3-1.1
	c0.3,0,0.6,0.3,0.9,0.4c0.6,0.2,1.7,1.5,2.2,2c3.4,3.3,5,4.7,7.6,6.4c0.9,0.8,1.8,2.3,3.3,3.6c-0.1,0.6,0.7,3.3,0.9,4.3
	c0,0.1-0.2,0.1-0.3,0.1c-0.1,0.1-0.1,0.2-0.2,0.2c-0.4,0.2-2.3-1.9-4.5-1.2c-5.9,1.9-3.4,9.1,0.2,8.9c0.6,0,1,0,1.2,0.1
	c0.2,0-0.7,0.7,0.4,0.9c0.6,0.1,1.2,0.2,1.8,0.2c0.7,0,0.5-0.7,0.7-0.6c0.8,0.2,1.5,0.4,2.2,0.2c0.7,0,2.1,0.1,2.7,0.5
	c0.7,0.6,1.2,1.9,1.9,2.7c0.4,0.4,0.9,0.8,1.2,1.2c0.3,0.4,0.1,0.7,0.4,1.1c0.1,0.1,0.3,0.2,0.3,0.3c0.4,0.5,0.6,0.9,0.9,1.3
	c0.6,0.8,1.5,0.3,1.8,1c0.1,0.2,0.3,0.9,0.4,1.2c0.4,0.7,0.8,1.3,0.9,1.5c0.4,0.4,0.2,1.4,0.8,1.4c0.2,0,1.4-2,1.5-1.6
	c0.3,0.8,1,1.7,1.8,2.9c0.4,0.5,0.6,0.5,1,1.3c0.3,0.5,0.3,1.4,0.6,2.3c0.4,1.6,1.1,3.1,1.5,4.1
	C-224.7,473.9-223.2,476.9-224.3,478.4z M-253.6,425.1c1.2,0.4,3.8,0.3,4.6,0.6c0.4,0.2,0.9,0.6,1.2,0.7c0.5,0.2,1,0,1.3,0.3
	c0.2,0.2,0.4,0.7,0.6,1c0.2,0.4,0.6,0.4,1,0.7c0.2,0.2,0.5,0.5,0.7,0.7c0.7,0.4,1.4,1,2.2,1.4c0.2,0.1,1.1,0.1,1.3,0.2
	c0.3,0.1,0.8,0.5,1.1,0.6c0.4,0.1,0.8-0.1,1.2,0c0.3,0.1,0.4,0.3,0.6,0.4c0.2,0.1,0.4,0,0.6,0.1c0.6,0.2,1,0.5,1.5,0.6
	c0.1,0,0.3,0.2,0.4,0.2c0.4,0.1,0.9,0,1.4,0.1c0.6,0.1,1.1,0.4,1.7,0.6c0.8,0.2,1.5,0.2,2.2,0.2c0.8,0,1.6,0.1,1.7,0.2
	c0.1,0.1-0.4,0.1-0.6,0.2c-0.2,0.1-0.3,0.4-0.5,0.5c-0.1,0.1-0.3,0.1-0.5,0.2c-0.2,0.1-0.3,0.4-0.5,0.4c-0.4,0.1-0.4-0.1-0.5,0.1
	c0,0.1-0.1,0.2-0.3,0.3c-0.2,0.1-0.5,0.1-0.9,0.2c-0.1,0-0.1,0.1-0.2,0.2c-0.2,0.1-0.3,0-0.5,0c-0.1,0-0.3,0.3-0.4,0.3
	c-0.1,0-0.2,0-0.4,0c-0.1,0-0.2,0.2-0.4,0.2c-0.1,0-0.3,0-0.4,0.1c-0.1,0-0.2,0.1-0.4,0.2c-0.1,0-0.3,0-0.4,0
	c-0.3,0.1-0.6,0.3-0.8,0.3c-0.2,0-0.4,0-0.6,0c-0.2,0-0.4,0.1-0.6,0.2c-0.1,0-0.2,0-0.2,0c-0.1,0-0.1,0.1-0.2,0.1
	c-0.3,0.1-0.7,0.1-0.9,0.1c-0.1,0-0.1,0-0.2,0c-0.1,0-0.2,0.1-0.3,0.1c-0.2,0-0.5,0.1-0.7,0c-0.1,0-0.2-1.1-0.3-1.2
	c-0.4-0.3-0.8,0.2-1.2,0c-0.1-0.1-0.2-0.4-0.3-0.6c-0.2-0.5-1-1.9-1.8-2.7c-0.5-0.5-0.8-1.1-1.3-1.6c-1-1-2.1-1.5-3.1-2.5
	c-1-1-2.4-2.6-3.8-2.9L-253.6,425.1z M-220.8,479.3c0.2-0.6,0.4-1.2,0.3-1.8c-0.1-2.7-0.2-6.4-0.7-8.2c-0.6-2.1-0.9-3.9-1.5-5.1
	c-0.2-0.5-0.5-0.9-0.8-1.5c-0.1-0.8-0.5-1.6-0.9-2.4c-0.2-0.4-0.4-1-0.6-1.4c-0.7-1.1-1.4-2-1.8-2.4c-0.5-0.4-0.5-0.6-0.5-0.8
	c-0.1-0.3,0.5,0,1.9-1c0.3-0.2,1-1.1,1.4-1.4c0.7-0.5,1.8-1.1,2.7-2c2.5-2.5,7.6-5.1,10.1-6.3c0.2-0.1,0.3,0.5,0.7,0.3
	c0.2-0.1,0.3-0.2,0.3-0.3c0.1-0.1,0.3-0.1,0.3-0.2c0.1-0.1,0.1-0.3,0.3-0.4c0.2-0.1,0.3-0.2,0.3-0.3c0-0.3-0.5-0.3-0.9-0.6
	c-0.7-0.6-1.6-1.6-2.8-2.5c-0.3-0.2-0.2-0.2,0.3-0.7c0,0,0.2,0,0.3-0.1c0.1-0.1,0.1-0.2,0.1-0.3c0.1-0.1,0.2-0.2,0.3-0.2
	c0.1-0.1,0.2-0.1,0.3-0.2c0.1-0.1,0.1-0.3,0.2-0.4c0.2-0.2,0.3-0.2,0.4-0.4c0.2-0.3,0.4-0.8,0.6-1.1c0.1-0.1,0.3-0.2,0.3-0.2
	c0.3-0.4,0.4-0.5,0.6-0.8c1.3-3.3-0.1-5.3-2.3-7.1c-0.9-0.7-1.8-0.7-3-1.3c-0.2-0.4-0.1-2-0.1-2.5c0-0.3,0.2-0.2,0.1-0.7
	c0-0.1,0.2-0.2,0.2-0.2c0-0.2-0.2-0.2-0.2-0.3c0-0.1,0-0.3,0-0.5c0-0.2,0-0.7,0.1-0.9c0-0.1,0.1-0.2,0.1-0.3c0-0.1-0.1-0.3-0.1-0.4
	c0-0.1,0.1-0.2,0.1-0.3c0-0.1,0-0.3,0-0.4c0-0.1,0.1-0.1,0.1-0.2c0-0.1,0-0.2,0-0.2c0-0.1,0.1-0.2,0.1-0.3c0-0.3,0.1-0.5,0.1-0.8
	c0.1-0.6,0.2-0.8,0.2-1.5c0-0.1-0.1-0.5-0.1-0.7c0-0.1,0.1-0.2,0.1-0.3c0-0.1,0-0.3,0-0.4c0-0.3,0.2-0.3,0.2-0.6
	c0-0.4-0.1-1.2-0.3-1.5c-0.1-0.2-0.8-0.6-0.9-0.7c-0.1-0.2,0-0.5,0-0.8c-0.1-0.6-0.3-1.2-0.6-1.4c-0.5-0.3-2.1-0.2-3.6,0
	c-1.3,0.2-2.6,0.4-2.6,0.9c0,0.1,0.2,0.3,0.3,0.4c0.1,0.2,0,0.7,0.1,0.9c0.2,0.4,0.3,0.6,0.6,1c0.2,0.2,0.4,0.5,0.5,0.8
	c0.2,0.4,0.6,0.9,0.7,1.4c0.2,0.5,0.2,1.1,0.4,1.5c0.1,0.3,0.2,1,0.3,1.3c0,0.1,0.2,0,0.2,0c0,0.1,0,0.1,0.1,0.2
	c0.1,0.1-0.1,0.2,0,0.3c0.1,0.2-0.3,0.6-0.2,0.8c0,0.1,0.4-0.1,0.4,0c0,0.1-0.1,0.2,0,0.3c0.1,0.1,0.1,0.3,0.2,0.4
	c0,0.1-0.3,0.2-0.2,0.3c0.1,0.2,0.2,0.1,0.3,0.3c0,0.1-0.2,0.7-0.2,0.8c0,0.1,0.1,0.1,0.1,0.3c0,0.1-0.3,0.2-0.3,0.3
	c0,0.1,0.3,0.1,0.2,0.2c0,0.2-0.3,0.3-0.3,0.4c0,0.2,0.2,0.1,0.2,0.3c0,0.1-0.1,0.3-0.1,0.4c0,1.8-0.7,5.8-2.2,9.5
	c-0.1,0.3-1.3,0.7-1.4,1c-0.1,0.3,0,0.7-0.1,1c-0.2,0.4-0.8,0.7-0.9,1.1c-0.3,1-0.2,2.1-0.4,2.8c-0.6,2.2,0.2,2.8,0,2.9
	c-0.5,0.1-0.7-1-0.7-1.6c0-0.3,0-0.7,0-1.1c-0.1-1.6,0.2-3.5,0.9-3.4c0.2,0-0.2-0.6-0.1-0.7c0.1-0.2,0.5-0.3,0.6-0.5
	c0.1-0.2-0.1-0.5,0-0.7c0.1-0.3,0.6-0.3,0.8-0.6c1.4-2.6,2.7-5.7,3.3-9.1c-1.8-0.2-6.5-1.4-9.8-1.8c-2.5-0.3-3.8-0.4-6.2-0.5
	c-0.6,0-2.5-0.7-3-0.9c-0.6-0.1-1.2,0.1-1.8-0.2c-0.6-0.3-1.5-1.1-2.1-1.5c-2.6-1.5-5.2-3-7.9-4.3c-1.9-0.9-3.6-2-5-2.9
	c6-4.2,13.3-6.7,21.2-6.7c20.4,0,37,16.6,37,37C-196.7,460.5-206.7,474.1-220.8,479.3z"/>
</svg>
